# xmcd CD database file
#
# Track frame offsets:
#	150
#	18612
#	32930
#	55917
#	76897
#	96770
#	118020
#	138337
#	159507
#	177877
#
# Disc length: 2663 seconds
#
# Revision: 1
# Processed by: cddbd v1.5.2PL0 Copyright (c) Steve Scherf et al.
# Submitted via: CDex 1.51
#
DISCID=7d0a650a
DTITLE=Olga Tañon - Olga Tañon
DYEAR=1997
DGENRE=Salsa
TTITLE0=Es mentiroso
TTITLE1=Me Subes, Me bajas, Me subes
TTITLE2=Una Noche más
TTITLE3=Me cambio por Ella
TTITLE4=Basta Ya
TTITLE5=Vendrás Llorando
TTITLE6=Muchacho Malo
TTITLE7=Presencié tu Amor
TTITLE8=Prisionera
TTITLE9=Ya me cansé
EXTD=YEAR: 1997
EXTT0=
EXTT1=
EXTT2=
EXTT3=
EXTT4=
EXTT5=
EXTT6=
EXTT7=
EXTT8=
EXTT9=
PLAYORDER=
